<?xml version="1.0" encoding="utf-8"?>
<!-- Generator: Adobe Illustrator 21.0.2, SVG Export Plug-In . SVG Version: 6.00 Build 0)  -->
<svg version="1.1" id="Layer_1" xmlns="http://www.w3.org/2000/svg" xmlns:xlink="http://www.w3.org/1999/xlink" x="0px" y="0px"
	 viewBox="0 0 757.3 610.9" style="enable-background:new 0 0 757.3 610.9;" xml:space="preserve">
<style type="text/css">
	.st0{opacity:0.26;fill:#ED9894;enable-background:new    ;}
	.st1{opacity:0.26;fill:#7CBF9C;enable-background:new    ;}
</style>
<title>Asset 1</title>
<path class="st0" d="M351.7,217.4c-19.4-9.9-84.6-13.3-93.4,47.8c-19.4,136.1-83.6,89.3-153.7,104.9s-69.1,188,79.8,205.6
	s217.9-80,218.8-193.2S372.1,227.8,351.7,217.4z"/>
<path class="st1" d="M186,119.1c5.6,25.4,41.3,85,101.7,72.9c126.8-25.3,138.7,32.6,188,106.4C542.4,398,801.7,276,713,111.4
	c-42.1-78.2-253.5,34.2-304.1,13.7C353,102.4,354.3,8.9,275,17.6C184.7,27.5,180.1,92.4,186,119.1z"/>
</svg>
